# xmcd
#
# Track frame offsets:
#	150
#	12843
#	25115
#	38177
#	52975
#	67881
#	81319
#	93835
#	103490
#	117023
#
# Disc length: 1718
#
# Revision: 2
# Processed by: cddbd v1.5.1PL0 Copyright (c) Steve Scherf et al.
# Submitted via: audiograbber 1.81.03
# Normalized: r1:DSETVAR1
#
DISCID=7406b40a
DTITLE=Various Artist - Men of Blues: Bus Rider Blues
DYEAR=1998
DGENRE=Blues
TTITLE0=Sonny Boy Williamson - I'm Dealin With The Devil
TTITLE1=Blind Boy Fuller and Sonny Terry - Bus Rider Blues
TTITLE2=Country Jail Blues - Country Jail Blues
TTITLE3=Memphis Slim - Lend Me Your Love
TTITLE4=Lonnie Johnson - He's A Jelly Roll Baker
TTITLE5=Arthur 'Big Boy' Crudup - Rock Me Mamma
TTITLE6=Muddy Waters - Hard Day Blues
TTITLE7=Lightnin' Hopkins - Feel So Bad
TTITLE8=Amos Milburn - Down The Road Apiece
TTITLE9=T-Bone Walker - Bobby Sox Blues
EXTD=
EXTT0=
EXTT1=
EXTT2=
EXTT3=
EXTT4=
EXTT5=
EXTT6=
EXTT7=
EXTT8=
EXTT9=
PLAYORDER=
